HIERARCHY
ROOT Hips
{
  OFFSET 5.72205e-005 65.662 3.42586
  CHANNELS 6 Xposition Yposition Zposition Zrotation Xrotation Yrotation
  JOINT Chest
  {
    OFFSET 0 8.7983 -4.7612
    CHANNELS 3 Zrotation Xrotation Yrotation
    JOINT Chest2
    {
      OFFSET 0 8.0291 0.4195
      CHANNELS 3 Zrotation Xrotation Yrotation
      JOINT Chest3
      {
        OFFSET 0 9.9351 -2.2114
        CHANNELS 3 Zrotation Xrotation Yrotation
        JOINT Neck
        {
          OFFSET 0 22.3885 -0.4656
          CHANNELS 3 Zrotation Xrotation Yrotation
          JOINT Head
          {
            OFFSET -0.0001 12.643 3.4389
            CHANNELS 3 Zrotation Xrotation Yrotation
            End Site
            {
              OFFSET 0.0001 17.6655 0.5274
            }
          }
        }
        JOINT LeftCollar
        {
          OFFSET 2.2603 21.606 7.4023
          CHANNELS 3 Zrotation Xrotation Yrotation
          JOINT LeftShoulder
          {
            OFFSET 13.5163 -1.1332 -5.0146
            CHANNELS 3 Zrotation Xrotation Yrotation
            JOINT LeftElbow
            {
              OFFSET -0.0995 -28.05 -0.2431
              CHANNELS 3 Zrotation Xrotation Yrotation
              JOINT LeftWrist
              {
                OFFSET 0.0679 -23.3996 -0.1402
                CHANNELS 3 Zrotation Xrotation Yrotation
                JOINT LeftFinger1
                {
                  OFFSET 0.7932 -9.069 2.5189
                  CHANNELS 3 Zrotation Xrotation Yrotation
                  JOINT LeftFinger11
                  {
                    OFFSET -0.8272 -3.3923 0.5977
                    CHANNELS 3 Zrotation Xrotation Yrotation
                    JOINT LeftFinger12
                    {
                      OFFSET -0.5649 -2.3158 0.4082
                      CHANNELS 3 Zrotation Xrotation Yrotation
                      End Site
                      {
                        OFFSET -0.4919 -1.6479 0.2673
                      }
                    }
                  }
                }
                JOINT LeftFinger2
                {
                  OFFSET 0.9159 -9.2044 0.2193
                  CHANNELS 3 Zrotation Xrotation Yrotation
                  JOINT LeftFinger21
                  {
                    OFFSET 0.0117 -4.1944 -0.0248
                    CHANNELS 3 Zrotation Xrotation Yrotation
                    JOINT LeftFinger22
                    {
                      OFFSET 0.0071 -2.3249 -0.0142
                      CHANNELS 3 Zrotation Xrotation Yrotation
                      End Site
                      {
                        OFFSET -0.1475 -2.0882 0.0028
                      }
                    }
                  }
                }
                JOINT LeftFinger3
                {
                  OFFSET 0.6113 -8.7231 -2.0637
                  CHANNELS 3 Zrotation Xrotation Yrotation
                  JOINT LeftFinger31
                  {
                    OFFSET -0.1927 -3.8059 -0.2383
                    CHANNELS 3 Zrotation Xrotation Yrotation
                    JOINT LeftFinger32
                    {
                      OFFSET -0.1091 -2.1688 -0.1362
                      CHANNELS 3 Zrotation Xrotation Yrotation
                      End Site
                      {
                        OFFSET -0.2358 -1.9176 -0.0906
                      }
                    }
                  }
                }
                JOINT LeftFinger4
                {
                  OFFSET -0.6151 -8.0947 -3.5641
                  CHANNELS 3 Zrotation Xrotation Yrotation
                  JOINT LeftFinger41
                  {
                    OFFSET -0.4882 -2.341 -0.6462
                    CHANNELS 3 Zrotation Xrotation Yrotation
                    JOINT LeftFinger42
                    {
                      OFFSET -0.3575 -1.7167 -0.4742
                      CHANNELS 3 Zrotation Xrotation Yrotation
                      End Site
                      {
                        OFFSET -0.4187 -1.5237 -0.3496
                      }
                    }
                  }
                }
                JOINT LeftFinger0
                {
                  OFFSET -1.42 -1.8761 1.4223
                  CHANNELS 3 Zrotation Xrotation Yrotation
                  JOINT LeftFinger01
                  {
                    OFFSET -1.1471 -3.4929 2.6334
                    CHANNELS 3 Zrotation Xrotation Yrotation
                    JOINT LeftFinger02
                    {
                      OFFSET -0.823 -2.3 1.6571
                      CHANNELS 3 Zrotation Xrotation Yrotation
                      End Site
                      {
                        OFFSET -0.5822 -1.6914 1.1582
                      }
                    }
                  }
                }
              }
            }
          }
        }
        JOINT RightCollar
        {
          OFFSET -2.2603 21.606 7.4023
          CHANNELS 3 Zrotation Xrotation Yrotation
          JOINT RightShoulder
          {
            OFFSET -13.5187 -1.1334 -5.0155
            CHANNELS 3 Zrotation Xrotation Yrotation
            JOINT RightElbow
            {
              OFFSET 0.0994 -28.0499 -0.2431
              CHANNELS 3 Zrotation Xrotation Yrotation
              JOINT RightWrist
              {
                OFFSET -0.0679 -23.3996 -0.1402
                CHANNELS 3 Zrotation Xrotation Yrotation
                JOINT RightFinger1
                {
                  OFFSET -0.7932 -9.0691 2.5189
                  CHANNELS 3 Zrotation Xrotation Yrotation
                  JOINT RightFinger11
                  {
                    OFFSET 0.8272 -3.3923 0.5977
                    CHANNELS 3 Zrotation Xrotation Yrotation
                    JOINT RightFinger12
                    {
                      OFFSET 0.565 -2.3158 0.4082
                      CHANNELS 3 Zrotation Xrotation Yrotation
                      End Site
                      {
                        OFFSET 0.4919 -1.6479 0.2673
                      }
                    }
                  }
                }
                JOINT RightFinger2
                {
                  OFFSET -0.916 -9.2044 0.2193
                  CHANNELS 3 Zrotation Xrotation Yrotation
                  JOINT RightFinger21
                  {
                    OFFSET -0.0117 -4.1944 -0.0248
                    CHANNELS 3 Zrotation Xrotation Yrotation
                    JOINT RightFinger22
                    {
                      OFFSET -0.0071 -2.3249 -0.0142
                      CHANNELS 3 Zrotation Xrotation Yrotation
                      End Site
                      {
                        OFFSET 0.1475 -2.0882 0.0028
                      }
                    }
                  }
                }
                JOINT RightFinger3
                {
                  OFFSET -0.6113 -8.7231 -2.0637
                  CHANNELS 3 Zrotation Xrotation Yrotation
                  JOINT RightFinger31
                  {
                    OFFSET 0.1927 -3.8059 -0.2383
                    CHANNELS 3 Zrotation Xrotation Yrotation
                    JOINT RightFinger32
                    {
                      OFFSET 0.1091 -2.1688 -0.1362
                      CHANNELS 3 Zrotation Xrotation Yrotation
                      End Site
                      {
                        OFFSET 0.2358 -1.9176 -0.0906
                      }
                    }
                  }
                }
                JOINT RightFinger4
                {
                  OFFSET 0.6151 -8.0947 -3.564
                  CHANNELS 3 Zrotation Xrotation Yrotation
                  JOINT RightFinger41
                  {
                    OFFSET 0.4882 -2.341 -0.6462
                    CHANNELS 3 Zrotation Xrotation Yrotation
                    JOINT RightFinger42
                    {
                      OFFSET 0.3574 -1.7166 -0.4742
                      CHANNELS 3 Zrotation Xrotation Yrotation
                      End Site
                      {
                        OFFSET 0.4187 -1.5237 -0.3496
                      }
                    }
                  }
                }
                JOINT RightFinger0
                {
                  OFFSET 1.4199 -1.8761 1.4221
                  CHANNELS 3 Zrotation Xrotation Yrotation
                  JOINT RightFinger01
                  {
                    OFFSET 1.1472 -3.4929 2.6336
                    CHANNELS 3 Zrotation Xrotation Yrotation
                    JOINT RightFinger02
                    {
                      OFFSET 0.8229 -2.3 1.6571
                      CHANNELS 3 Zrotation Xrotation Yrotation
                      End Site
                      {
                        OFFSET 0.5822 -1.6914 1.1582
                      }
                    }
                  }
                }
              }
            }
          }
        }
      }
    }
  }
  JOINT RightHip
  {
    OFFSET -9.412 3.9771 -0.7758
    CHANNELS 3 Zrotation Xrotation Yrotation
    JOINT RightKnee
    {
      OFFSET -0.7531 -40.938 0
      CHANNELS 3 Zrotation Xrotation Yrotation
      JOINT RightAnkle
      {
        OFFSET 0 -40.1986 0
        CHANNELS 3 Zrotation Xrotation Yrotation
        JOINT RightToe
        {
          OFFSET 0 -4.4182 9.239
          CHANNELS 3 Zrotation Xrotation Yrotation
          End Site
          {
            OFFSET 0 0 6.1981
          }
        }
      }
    }
  }
  JOINT LeftHip
  {
    OFFSET 9.4119 3.9773 -0.7758
    CHANNELS 3 Zrotation Xrotation Yrotation
    JOINT LeftKnee
    {
      OFFSET 0.7532 -40.9383 0
      CHANNELS 3 Zrotation Xrotation Yrotation
      JOINT LeftAnkle
      {
        OFFSET 0 -40.1986 0
        CHANNELS 3 Zrotation Xrotation Yrotation
        JOINT LeftToe
        {
          OFFSET 0 -4.4182 9.239
          CHANNELS 3 Zrotation Xrotation Yrotation
          End Site
          {
            OFFSET 0 0 6.1981
          }
        }
      }
    }
  }
}
MOTION
Frames:	5
Frame Time:	0.0333333
5.72205e-005 65.662 3.42586 0 0 -0 0 0 -0 0 0 -0 0 0 -0 0 0 -0 0 0 -0 0 0 -12.5014 88.1196 14.2451 10.6914 -0.00160068 -0.00239207 0.000740045 -8.4365e-005 7.00714e-005 -9.52055e-007 9.93923e-017 -1.98785e-016 -1.59028e-015 9.93923e-017 -5.96354e-016 -1.59028e-015 -9.93923e-017 -5.96354e-016 -1.59028e-015 9.93923e-017 -1.98785e-016 -1.59028e-015 -0.0128176 0.00232552 8.52707e-005 9.93923e-017 5.96354e-016 -0 9.93923e-017 -1.98785e-016 -1.59028e-015 -0.0160551 0.00299681 0.000857156 -2.48481e-016 0 3.18055e-015 9.93923e-017 -1.98785e-016 -1.59028e-015 -0.0125865 0.0031206 0.00282719 0 1.98785e-016 -0 9.93923e-017 -1.98785e-016 -1.59028e-015 9.93923e-017 -5.96354e-016 -1.59028e-015 -9.93923e-017 -5.96354e-016 -1.59028e-015 -0.865644 0.16582 7.03859 -88.0329 10.2057 -10.5567 0.0015593 -0.00248883 -0.000788628 7.87605e-005 4.10553e-005 1.24965e-005 -3.97569e-016 -7.95139e-016 3.18055e-015 -1.98785e-016 -3.97569e-016 3.18055e-015 -1.98785e-016 0 3.18055e-015 -3.97569e-016 -7.95139e-016 3.18055e-015 0.0129473 0.00231697 -8.70038e-005 9.93923e-017 -7.95139e-016 1.59028e-015 -3.97569e-016 -7.95139e-016 3.18055e-015 0.0163314 0.00303369 -0.000872333 3.97569e-016 7.95139e-016 -3.18055e-015 -3.97569e-016 -7.95139e-016 3.18055e-015 0.0145763 0.00367772 -0.00326275 9.93923e-017 -3.97569e-016 -0 -3.97569e-016 -7.95139e-016 3.18055e-015 -1.98785e-016 -3.97569e-016 3.18055e-015 -1.98785e-016 0 3.18055e-015 3.42482 1.32465 -0.0626183 0.000117508 0.717283 0.000978199 -3.4257 -2.04197 -0.0604716 6.47761e-025 0 -0 -3.42483 1.34017 0.0627307 -0.000193936 0.682302 -0.0013703 3.42574 -2.02253 0.0595886 -8.45714e-024 0 -7.40531e-025 
21.246 65.1201 10.5466 -1.34824e-016 1.36889e-015 101.25 -0.885704 0.289453 -0.442186 -1.76919 0.585704 -0.879825 -1.76918 0.585698 -0.879848 -1.87948 2.05698 0.100209 -16.6329 -4.20306 -2.46345 -27.691 -2.50164 -20.8363 79.7194 2.7155 12.5157 -3.44624 -14.0927 -0.927069 -3.45712 10.9598 -1.04925 9.54166e-015 -1.78906e-015 1.59028e-015 6.36111e-015 -2.68359e-015 3.57812e-015 -6.36111e-015 -2.68359e-015 1.78906e-015 9.54166e-015 -1.78906e-015 1.59028e-015 -0.0128221 0.00233052 9.46754e-005 6.36111e-015 2.28602e-015 7.95139e-016 9.54166e-015 -1.78906e-015 1.59028e-015 -0.0160254 0.00299092 0.000876463 -3.18055e-015 -1.09332e-014 8.94531e-016 9.54166e-015 -1.78906e-015 1.59028e-015 -0.0126451 0.00313859 0.00284531 -4.47995e-006 -3.11733e-006 4.98824e-006 9.54166e-015 -1.78906e-015 1.59028e-015 6.36111e-015 -2.68359e-015 3.57812e-015 -6.36111e-015 -2.68359e-015 1.78906e-015 27.145 -2.63738 16.3498 -77.456 3.1246 -11.8424 52.039 -66.9123 23.0476 10.8976 2.49756 0.599781 3.18055e-015 7.95139e-015 6.36111e-015 3.18055e-015 3.18055e-015 -3.18055e-015 6.36111e-015 3.18055e-015 -0 3.18055e-015 7.95139e-015 6.36111e-015 0.0128889 0.00230387 -8.51396e-005 -6.36111e-015 1.59028e-015 -6.36111e-015 3.18055e-015 7.95139e-015 6.36111e-015 0.0162864 0.00301364 -0.000870552 -7.94287e-007 -2.99792e-006 -3.1051e-006 3.18055e-015 7.95139e-015 6.36111e-015 0.0143873 0.003625 -0.0032147 -2.64834e-031 -1.59028e-015 -9.54166e-015 3.18055e-015 7.95139e-015 6.36111e-015 3.18055e-015 3.18055e-015 -3.18055e-015 6.36111e-015 3.18055e-015 -0 2.89075 -0.543502 -0.257954 1.29689 6.59386 -0.267868 -5.26836 -4.83484 1.20159 1.06678e-007 -1.0559e-008 2.33622e-009 -2.89287 -0.54376 0.255892 -1.29884 6.59412 0.266077 5.26664 -4.83463 -1.2037 -4.66677e-007 -4.58663e-007 1.00819e-005 
31.869 64.6585 16.5718 -7.01671e-015 7.01671e-015 180 -1.56711 0.503753 -0.794303 -3.12727 1.02899 -1.57462 -3.12728 1.029 -1.57463 -3.3459 3.65671 0.17858 -29.7781 -7.45812 -4.39864 -49.7273 -4.34548 -27.3484 73.6432 -6.42442 13.9238 -6.4668 -25.101 -2.2083 -6.11193 19.4572 -2.07836 7.95139e-016 0 -0 2.38542e-015 -6.36111e-015 -7.95139e-016 1.59028e-015 0 1.59028e-015 7.95139e-016 0 -0 -0.0128159 0.00232278 8.86965e-005 1.59028e-015 9.54166e-015 7.95139e-016 7.95139e-016 0 -0 -0.0160468 0.00299299 0.000860432 2.38542e-015 6.36111e-015 -2.38542e-015 7.95139e-016 0 -0 -0.0125651 0.00312215 0.00282233 1.76556e-031 -1.27222e-014 7.95139e-016 7.95139e-016 0 -0 2.38542e-015 -6.36111e-015 -7.95139e-016 1.59028e-015 0 1.59028e-015 49.541 -4.68206 23.6314 -69.4341 -2.54097 -12.8069 -152.833 -54.5131 156.918 19.3762 4.47558 0.799706 6.70711e-007 -1.83547e-007 -3.08683e-006 -3.18055e-015 -3.18055e-015 -9.54166e-015 -4.77083e-015 -3.18055e-015 -0 6.70711e-007 -1.83547e-007 -3.08683e-006 0.0128892 0.00229955 -8.04457e-005 -4.77083e-015 -3.18055e-015 -3.18055e-015 6.70711e-007 -1.83547e-007 -3.08683e-006 0.0162901 0.00302847 -0.000867734 0 6.36111e-015 -0 6.70711e-007 -1.83547e-007 -3.08683e-006 0.0145961 0.00367636 -0.00326169 -6.36111e-015 -9.54166e-015 6.36111e-015 6.70711e-007 -1.83547e-007 -3.08683e-006 -3.18055e-015 -3.18055e-015 -9.54166e-015 -4.77083e-015 -3.18055e-015 -0 2.47313 -2.13716 -0.410746 2.3388 11.4415 -0.494134 -6.62663 -7.12998 2.18507 -9.84292e-008 2.17453e-007 -2.17311e-007 -2.47716 -2.11947 0.407428 -2.34171 11.4236 0.489815 6.62338 -7.12942 -2.18888 -3.19774e-007 -1.32147e-008 -1.26533e-008 
33.2079 64.5926 17.886 -8.3856e-015 6.88189e-015 -168.75 -1.66393 0.533574 -0.84518 -3.32005 1.09141 -1.67462 -3.32005 1.09141 -1.67463 -3.55563 3.8852 0.18987 -31.5078 -7.92513 -4.65348 -52.91 -4.59678 -28.282 72.8082 -7.7411 14.1294 -7.03245 -27.0065 -2.51086 -6.61688 20.5615 -2.20935 1.98785e-016 -3.18055e-015 -0 3.97569e-016 3.18055e-015 1.98785e-016 0 3.18055e-015 -0 1.98785e-016 -3.18055e-015 -0 -0.012812 0.00232547 8.35596e-005 1.98785e-016 6.36111e-015 3.97569e-016 1.98785e-016 -3.18055e-015 -0 -0.0160433 0.00300033 0.000857727 1.98785e-016 3.18055e-015 -1.98785e-016 1.98785e-016 -3.18055e-015 -0 -0.0125864 0.00312651 0.00282339 -1.98785e-016 -3.18055e-015 1.98785e-016 1.98785e-016 -3.18055e-015 -0 3.97569e-016 3.18055e-015 1.98785e-016 0 3.18055e-015 -0 52.7826 -4.95781 24.6762 -68.3025 -3.36043 -12.9426 -146.655 -47.4296 160.275 20.5882 4.75758 0.809379 -1.76556e-031 -1.59028e-015 -6.36111e-015 4.77083e-015 -3.18055e-015 -6.36111e-015 -2.48801e-006 1.67241e-006 4.20738e-006 -1.76556e-031 -1.59028e-015 -6.36111e-015 0.0129784 0.00232809 -9.55948e-005 1.59028e-015 0 -0 -1.76556e-031 -1.59028e-015 -6.36111e-015 0.0163038 0.00303053 -0.000868848 7.59839e-007 3.58166e-006 -2.52967e-006 -1.76556e-031 -1.59028e-015 -6.36111e-015 0.0145319 0.00366807 -0.00324924 -4.39014e-007 2.30222e-006 -2.96986e-006 -1.76556e-031 -1.59028e-015 -6.36111e-015 4.77083e-015 -3.18055e-015 -6.36111e-015 -2.48801e-006 1.67241e-006 4.20738e-006 2.41335 -2.3515 -0.432817 2.49002 12.114 -0.526715 -6.81519 -7.45017 2.32683 2.1315e-007 1.66769e-007 8.98265e-009 -2.41732 -2.35692 0.428854 -2.49353 12.1193 0.523592 6.81172 -7.44964 -2.33086 1.46074e-007 -2.37865e-007 -8.38757e-007 
31.869 64.6585 16.5718 -7.01671e-015 7.01671e-015 180 -1.56711 0.503753 -0.794303 -3.12727 1.02899 -1.57462 -3.12728 1.029 -1.57463 -3.3459 3.65671 0.17858 -29.3904 -7.46686 -4.34108 -49.7273 -4.34548 -27.3484 73.6432 -6.42441 13.9238 -6.68469 -25.8886 -2.36305 -6.42421 19.2022 -2.00207 -1.59028e-015 -3.18055e-015 -3.18055e-015 -2.38542e-015 -1.27222e-014 -2.38542e-015 8.82781e-032 -6.36111e-015 7.95139e-016 -1.59028e-015 -3.18055e-015 -3.18055e-015 -0.0128441 0.00233681 9.20335e-005 -4.41391e-032 3.18055e-015 7.95139e-016 -1.59028e-015 -3.18055e-015 -3.18055e-015 -0.0160609 0.00299761 0.000858747 7.95139e-016 6.36111e-015 3.18055e-015 -1.59028e-015 -3.18055e-015 -3.18055e-015 -0.0125976 0.00313314 0.00282957 -7.95139e-016 -9.54166e-015 -0 -1.59028e-015 -3.18055e-015 -3.18055e-015 -2.38542e-015 -1.27222e-014 -2.38542e-015 8.82781e-032 -6.36111e-015 7.95139e-016 49.541 -4.68206 23.6314 -69.4341 -2.54099 -12.8069 -153.613 -55.2559 156.53 19.3763 4.4756 0.799661 2.8625e-014 1.59028e-014 9.54166e-015 2.22639e-014 1.59028e-014 9.54166e-015 2.38542e-014 1.59028e-014 9.54166e-015 2.8625e-014 1.59028e-014 9.54166e-015 0.0129638 0.00231952 -8.30447e-005 6.36111e-015 -9.54166e-015 -0 2.8625e-014 1.59028e-014 9.54166e-015 0.0163546 0.00303266 -0.000883296 -1.59028e-015 3.18055e-015 -9.54166e-015 2.8625e-014 1.59028e-014 9.54166e-015 0.0145954 0.00368087 -0.0032683 3.18055e-015 0 6.36111e-015 2.8625e-014 1.59028e-014 9.54166e-015 2.22639e-014 1.59028e-014 9.54166e-015 2.38542e-014 1.59028e-014 9.54166e-015 2.47313 -2.13716 -0.410746 2.3388 11.4415 -0.494134 -6.62663 -7.12998 2.18507 -9.84292e-008 2.17453e-007 -2.17311e-007 -2.47716 -2.11947 0.407428 -2.34171 11.4236 0.489815 6.62338 -7.12942 -2.18888 -3.19774e-007 -1.32147e-008 -1.26533e-008 
